<svg width="512" height="512" viewBox="0 0 512 512" fill="none" xmlns="http://www.w3.org/2000/svg">
<rect width="512" height="512" rx="50" fill="url(#paint0_linear_5993_2091)"/>
<path d="M293.182 119.81L308.308 114.304L313.81 99.1819C313.936 98.8355 314.166 98.5363 314.468 98.3249C314.77 98.1134 315.13 98 315.498 98C315.867 98 316.227 98.1134 316.529 98.3249C316.831 98.5363 317.06 98.8355 317.186 99.1819L322.692 114.308L337.818 119.81C338.164 119.936 338.464 120.166 338.675 120.468C338.887 120.77 339 121.13 339 121.498C339 121.867 338.887 122.227 338.675 122.529C338.464 122.831 338.164 123.06 337.818 123.186L322.689 128.692L317.186 143.818C317.06 144.164 316.831 144.464 316.529 144.675C316.227 144.887 315.867 145 315.498 145C315.13 145 314.77 144.887 314.468 144.675C314.166 144.464 313.936 144.164 313.81 143.818L308.304 128.689L293.182 123.186C292.836 123.06 292.536 122.831 292.325 122.529C292.113 122.227 292 121.867 292 121.498C292 121.13 292.113 120.77 292.325 120.468C292.536 120.166 292.836 119.936 293.182 119.81Z" stroke="white" stroke-width="10" stroke-linecap="round" stroke-linejoin="round"/>
<g clip-path="url(#clip0_5993_2091)">
<path d="M376.132 171.738L390.614 165.998L395.882 150.232C396.003 149.871 396.223 149.559 396.512 149.339C396.801 149.118 397.145 149 397.498 149C397.851 149 398.196 149.118 398.485 149.339C398.774 149.559 398.994 149.871 399.115 150.232L404.386 166.002L418.868 171.738C419.2 171.87 419.487 172.109 419.689 172.424C419.891 172.739 420 173.114 420 173.498C420 173.882 419.891 174.258 419.689 174.572C419.487 174.887 419.2 175.127 418.868 175.258L404.383 180.998L399.115 196.768C398.994 197.129 398.774 197.441 398.485 197.661C398.196 197.882 397.851 198 397.498 198C397.145 198 396.801 197.882 396.512 197.661C396.223 197.441 396.003 197.129 395.882 196.768L390.61 180.995L376.132 175.258C375.8 175.127 375.513 174.887 375.311 174.572C375.109 174.258 375 173.882 375 173.498C375 173.114 375.109 172.739 375.311 172.424C375.513 172.109 375.8 171.87 376.132 171.738Z" stroke="white" stroke-width="10" stroke-linecap="round" stroke-linejoin="round"/>
</g>
<path fill-rule="evenodd" clip-rule="evenodd" d="M230.013 378.688C226.577 376.57 223.016 374.662 219.35 372.975C210.187 368.738 197.963 364.75 184.75 364.75C168.762 364.75 154.275 370.6 145 375.525C142.073 377.06 138.81 377.841 135.506 377.797C132.201 377.754 128.96 376.887 126.075 375.275C123.041 373.645 120.503 371.226 118.73 368.274C116.956 365.321 116.013 361.944 116 358.5V202.25C116 194.488 119.688 186.462 127.225 181.887C136.9 176.012 158.675 164.75 184.75 164.75C204.512 164.75 224.062 171.125 241 181.125C257.938 171.125 277.488 164.75 297.25 164.75C323.325 164.75 345.1 176 354.775 181.887C362.312 186.462 366 194.488 366 202.25V358.5C366 366.413 361.263 372.325 355.925 375.275C353.038 376.889 349.795 377.757 346.488 377.801C343.181 377.844 339.916 377.062 336.988 375.525C327.725 370.6 313.238 364.75 297.25 364.75C284.037 364.75 271.813 368.75 262.65 372.975C258.984 374.662 255.423 376.57 251.988 378.688C248.438 380.9 245.438 383.5 241.013 383.5C236.563 383.5 233.575 380.9 230.013 378.688ZM141 349.675V202.775C149.412 197.775 166 189.75 184.75 189.75C200.125 189.75 215.35 194.975 228.5 202.775V349.675C217.438 344.725 202.087 339.75 184.75 339.75C167.487 339.75 152.137 344.688 141 349.675ZM253.5 349.675C264.562 344.725 279.913 339.75 297.25 339.75C314.513 339.75 329.863 344.688 341 349.675V202.775C332.588 197.775 316 189.75 297.25 189.75C281.875 189.75 266.65 194.975 253.5 202.775V349.675Z" fill="white"/>
<g clip-path="url(#clip1_5993_2091)">
<path d="M369.433 353.059L369.452 358.521C369.468 362.867 371.209 367.028 374.292 370.09C377.376 373.152 381.549 374.863 385.894 374.848C390.24 374.832 394.401 373.092 397.463 370.008C400.525 366.925 402.236 362.751 402.221 358.406L402.201 352.943L402.03 302.733C402.015 299.33 402.009 297.627 401.797 295.961C401.546 293.993 401.083 292.059 400.415 290.191C399.847 288.611 399.079 287.09 397.548 284.055L391.059 271.188M369.433 353.059C369.433 353.059 375.557 347.578 385.798 347.542C396.036 347.503 402.198 352.946 402.198 352.946M369.433 353.059L369.259 302.852C369.247 299.452 369.241 297.749 369.441 296.081C369.678 294.111 370.128 292.174 370.782 290.301C371.339 288.717 372.094 287.194 373.606 284.145L380.004 271.233M380.004 271.233L381.566 268.075C381.93 267.338 382.492 266.717 383.189 266.282C383.886 265.847 384.69 265.615 385.512 265.612C386.333 265.609 387.139 265.835 387.839 266.266C388.539 266.696 389.106 267.312 389.474 268.047L391.059 271.194L380.004 271.233Z" stroke="white" stroke-width="10"/>
</g>
<defs>
<linearGradient id="paint0_linear_5993_2091" x1="505.5" y1="510" x2="10" y2="-6.33451e-06" gradientUnits="userSpaceOnUse">
<stop stop-color="#007BFF"/>
<stop offset="1" stop-color="#00BBFF"/>
</linearGradient>
<clipPath id="clip0_5993_2091">
<rect width="60" height="60" fill="white" transform="translate(367 142)"/>
</clipPath>
<clipPath id="clip1_5993_2091">
<rect width="100" height="100" fill="white" transform="translate(456.421 322.461) rotate(134.798)"/>
</clipPath>
</defs>
</svg>
